  0
SECTION
  2
HEADER
  9
$ACADVER
  1
AC1009
  9
$INSBASE
 10
0.0
 20
0.0
 30
0.0
  9
$EXTMIN
 10
375.0996718949027127
 20
189.7327816590992882
 30
0.0
  9
$EXTMAX
 10
716.5996718949028264
 20
382.7327816590993734
 30
0.0
  9
$LIMMIN
 10
0.0
 20
0.0
  9
$LIMMAX
 10
12.0
 20
9.0
  9
$ORTHOMODE
 70
     1
  9
$REGENMODE
 70
     1
  9
$FILLMODE
 70
     1
  9
$QTEXTMODE
 70
     0
  9
$MIRRTEXT
 70
     0
  9
$DRAGMODE
 70
     2
  9
$LTSCALE
 40
1.0
  9
$OSMODE
 70
  4095
  9
$ATTMODE
 70
     1
  9
$TEXTSIZE
 40
0.2
  9
$TRACEWID
 40
0.05
  9
$TEXTSTYLE
  7
STANDARD
  9
$CLAYER
  8
0
  9
$CELTYPE
  6
BYLAYER
  9
$CECOLOR
 62
   256
  9
$DIMSCALE
 40
1.0
  9
$DIMASZ
 40
0.18
  9
$DIMEXO
 40
0.0625
  9
$DIMDLI
 40
0.38
  9
$DIMRND
 40
0.0
  9
$DIMDLE
 40
0.0
  9
$DIMEXE
 40
0.18
  9
$DIMTP
 40
0.0
  9
$DIMTM
 40
0.0
  9
$DIMTXT
 40
0.18
  9
$DIMCEN
 40
0.09
  9
$DIMTSZ
 40
0.0
  9
$DIMTOL
 70
     0
  9
$DIMLIM
 70
     0
  9
$DIMTIH
 70
     1
  9
$DIMTOH
 70
     1
  9
$DIMSE1
 70
     0
  9
$DIMSE2
 70
     0
  9
$DIMTAD
 70
     0
  9
$DIMZIN
 70
     0
  9
$DIMBLK
  1

  9
$DIMASO
 70
     1
  9
$DIMSHO
 70
     1
  9
$DIMPOST
  1

  9
$DIMAPOST
  1

  9
$DIMALT
 70
     0
  9
$DIMALTD
 70
     2
  9
$DIMALTF
 40
25.3999999999999986
  9
$DIMLFAC
 40
1.0
  9
$DIMTOFL
 70
     0
  9
$DIMTVP
 40
0.0
  9
$DIMTIX
 70
     0
  9
$DIMSOXD
 70
     0
  9
$DIMSAH
 70
     0
  9
$DIMBLK1
  1

  9
$DIMBLK2
  1

  9
$DIMSTYLE
  2
STANDARD
  9
$DIMCLRD
 70
     0
  9
$DIMCLRE
 70
     0
  9
$DIMCLRT
 70
     0
  9
$DIMTFAC
 40
1.0
  9
$DIMGAP
 40
0.09
  9
$LUNITS
 70
     2
  9
$LUPREC
 70
     4
  9
$SKETCHINC
 40
0.1
  9
$FILLETRAD
 40
0.0
  9
$AUNITS
 70
     0
  9
$AUPREC
 70
     0
  9
$MENU
  1
.
  9
$ELEVATION
 40
0.0
  9
$PELEVATION
 40
0.0
  9
$THICKNESS
 40
0.0
  9
$LIMCHECK
 70
     0
  9
$BLIPMODE
 70
     0
  9
$CHAMFERA
 40
0.0
  9
$CHAMFERB
 40
0.0
  9
$SKPOLY
 70
     0
  9
$TDCREATE
 40
2460503.5320949079468846
  9
$TDUPDATE
 40
2460503.661979166790843
  9
$TDINDWG
 40
0.0151041667
  9
$TDUSRTIMER
 40
0.0151041667
  9
$USRTIMER
 70
     1
  9
$ANGBASE
 50
0.0
  9
$ANGDIR
 70
     0
  9
$PDMODE
 70
     0
  9
$PDSIZE
 40
0.0
  9
$PLINEWID
 40
0.0
  9
$COORDS
 70
     1
  9
$SPLFRAME
 70
     0
  9
$SPLINETYPE
 70
     6
  9
$SPLINESEGS
 70
     8
  9
$ATTDIA
 70
     1
  9
$ATTREQ
 70
     1
  9
$HANDLING
 70
     1
  9
$HANDSEED
  5
35D
  9
$SURFTAB1
 70
     6
  9
$SURFTAB2
 70
     6
  9
$SURFTYPE
 70
     6
  9
$SURFU
 70
     6
  9
$SURFV
 70
     6
  9
$UCSNAME
  2

  9
$UCSORG
 10
0.0
 20
0.0
 30
0.0
  9
$UCSXDIR
 10
1.0
 20
0.0
 30
0.0
  9
$UCSYDIR
 10
0.0
 20
1.0
 30
0.0
  9
$PUCSNAME
  2

  9
$PUCSORG
 10
0.0
 20
0.0
 30
0.0
  9
$PUCSXDIR
 10
1.0
 20
0.0
 30
0.0
  9
$PUCSYDIR
 10
0.0
 20
1.0
 30
0.0
  9
$USERI1
 70
     0
  9
$USERI2
 70
     0
  9
$USERI3
 70
     0
  9
$USERI4
 70
     0
  9
$USERI5
 70
     0
  9
$USERR1
 40
0.0
  9
$USERR2
 40
0.0
  9
$USERR3
 40
0.0
  9
$USERR4
 40
0.0
  9
$USERR5
 40
0.0
  9
$WORLDVIEW
 70
     1
  9
$SHADEDGE
 70
     3
  9
$SHADEDIF
 70
    70
  9
$TILEMODE
 70
     1
  9
$MAXACTVP
 70
    64
  9
$PLIMCHECK
 70
     0
  9
$PEXTMIN
 10
0.0
 20
0.0
 30
0.0
  9
$PEXTMAX
 10
0.0
 20
0.0
 30
0.0
  9
$PLIMMIN
 10
0.0
 20
0.0
  9
$PLIMMAX
 10
12.0
 20
9.0
  9
$UNITMODE
 70
     0
  9
$VISRETAIN
 70
     1
  9
$PLINEGEN
 70
     0
  9
$PSLTSCALE
 70
     1
  0
ENDSEC
  0
SECTION
  2
TABLES
  0
TABLE
  2
VPORT
 70
     1
  0
VPORT
  2
*ACTIVE
 70
     0
 10
0.0
 20
0.0
 11
1.0
 21
1.0
 12
1177.5954868914100189
 22
249.5707077251827002
 13
0.0
 23
0.0
 14
0.5
 24
0.5
 15
0.5
 25
0.5
 16
0.0
 26
0.0
 36
1.0
 17
0.0
 27
0.0
 37
0.0
 40
1274.1502042158169843
 41
2.3650990099009901
 42
50.0
 43
0.0
 44
0.0
 50
0.0
 51
0.0
 71
     0
 72
  1000
 73
     1
 74
     3
 75
     0
 76
     1
 77
     0
 78
     0
  0
ENDTAB
  0
TABLE
  2
LTYPE
 70
     2
  0
LTYPE
  2
CONTINUOUS
 70
     0
  3
Solid line
 72
    65
 73
     0
 40
0.0
  0
ENDTAB
  0
TABLE
  2
LAYER
 70
     2
  0
LAYER
  2
0
 70
     0
 62
     7
  6
CONTINUOUS
  0
LAYER
  2
DEFPOINTS
 70
     0
 62
     7
  6
CONTINUOUS
  0
ENDTAB
  0
TABLE
  2
STYLE
 70
     2
  0
STYLE
  2
STANDARD
 70
     0
 40
0.0
 41
1.0
 50
0.0
 71
     0
 42
0.2
  3
txt
  4

  0
STYLE
  2
ANNOTATIVE
 70
     0
 40
0.0
 41
1.0
 50
0.0
 71
     0
 42
0.2
  3
txt
  4

  0
ENDTAB
  0
TABLE
  2
VIEW
 70
     0
  0
ENDTAB
  0
TABLE
  2
UCS
 70
     0
  0
ENDTAB
  0
TABLE
  2
APPID
 70
     8
  0
APPID
  2
ACAD
 70
     0
  0
APPID
  2
ACADANNOPO
 70
     0
  0
APPID
  2
ACADANNOTATIVE
 70
     0
  0
APPID
  2
ACAD_DSTYLE_DIMJAG
 70
     0
  0
APPID
  2
ACAD_DSTYLE_DIMTALN
 70
     0
  0
APPID
  2
ACAD_MLEADERVER
 70
     0
  0
APPID
  2
ACAD_NAV_VCDISPLAY
 70
     0
  0
APPID
  2
ACAD_EXEMPT_FROM_CAD_STANDARDS
 70
     0
  0
ENDTAB
  0
TABLE
  2
DIMSTYLE
 70
     3
  0
DIMSTYLE
  2
STANDARD
 70
     0
  3

  4

  5

  6

  7

 40
1.0
 41
0.18
 42
0.0625
 43
0.38
 44
0.18
 45
0.0
 46
0.0
 47
0.0
 48
0.0
140
0.18
141
0.09
142
0.0
143
25.3999999999999986
144
1.0
145
0.0
146
1.0
147
0.09
 71
     0
 72
     0
 73
     1
 74
     1
 75
     0
 76
     0
 77
     0
 78
     0
170
     0
171
     2
172
     0
173
     0
174
     0
175
     0
176
     0
177
     0
178
     0
  0
DIMSTYLE
  2
ANNOTATIVE
 70
     0
  3

  4

  5

  6

  7

 40
0.0
 41
0.18
 42
0.0625
 43
0.38
 44
0.18
 45
0.0
 46
0.0
 47
0.0
 48
0.0
140
0.18
141
0.09
142
0.0
143
25.3999999999999986
144
1.0
145
0.0
146
1.0
147
0.09
 71
     0
 72
     0
 73
     1
 74
     1
 75
     0
 76
     0
 77
     0
 78
     0
170
     0
171
     2
172
     0
173
     0
174
     0
175
     0
176
     0
177
     0
178
     0
  0
ENDTAB
  0
ENDSEC
  0
SECTION
  2
BLOCKS
  0
BLOCK
  8
0
  2
$MODEL_SPACE
 70
     0
 10
0.0
 20
0.0
 30
0.0
  3
$MODEL_SPACE
  1

  0
ENDBLK
  5
21
  8
0
  0
BLOCK
 67
     1
  8
0
  2
$PAPER_SPACE
 70
     0
 10
0.0
 20
0.0
 30
0.0
  3
$PAPER_SPACE
  1

  0
ENDBLK
  5
76
 67
     1
  8
0
  0
BLOCK
  8
0
  2
*D1
 70
     1
 10
0.0
 20
0.0
 30
0.0
  3
*D1
  1

  0
LINE
  5
21F
  8
0
 62
     0
 10
54.7574740677472889
 20
18.1617493800829415
 30
0.0
 11
54.7574740677472889
 21
15.4963830692057094
 31
0.0
  0
LINE
  5
220
  8
0
 62
     0
 10
186.757474067747296
 20
18.1617493800829415
 30
0.0
 11
186.757474067747296
 21
15.4963830692057094
 31
0.0
  0
LINE
  5
221
  8
0
 62
     0
 10
54.9374740677473028
 20
15.6763830692057091
 30
0.0
 11
120.162774204172905
 21
15.6763830692057091
 31
0.0
  0
LINE
  5
222
  8
0
 62
     0
 10
186.5774740677472892
 20
15.6763830692057091
 30
0.0
 11
121.3521739313216017
 21
15.6763830692057091
 31
0.0
  0
SOLID
  5
223
  8
0
 62
     0
 10
54.9374740677473028
 20
15.7063830692057103
 30
0.0
 11
54.9374740677473028
 21
15.6463830692057098
 31
0.0
 12
54.7574740677472889
 22
15.6763830692057091
 32
0.0
 13
54.7574740677472889
 23
15.6763830692057091
 33
0.0
  0
SOLID
  5
224
  8
0
 62
     0
 10
186.5774740677472892
 20
15.7063830692057103
 30
0.0
 11
186.5774740677472892
 21
15.6463830692057098
 31
0.0
 12
186.757474067747296
 22
15.6763830692057091
 32
0.0
 13
186.757474067747296
 23
15.6763830692057091
 33
0.0
  0
INSERT
  5
225
  8
0
  2
*U5
 10
0.0
 20
0.0
 30
0.0
  0
POINT
  5
226
  8
DEFPOINTS
 62
     0
 10
54.7574740677472889
 20
18.2242493800829415
 30
0.0
  0
POINT
  5
227
  8
DEFPOINTS
 62
     0
 10
186.757474067747296
 20
18.2242493800829415
 30
0.0
  0
POINT
  5
228
  8
DEFPOINTS
 62
     0
 10
186.757474067747296
 20
15.6763830692057091
 30
0.0
  0
ENDBLK
  5
213
  8
0
  0
BLOCK
  8
0
  2
*D2
 70
     1
 10
0.0
 20
0.0
 30
0.0
  3
*D2
  1

  0
LINE
  5
239
  8
0
 62
     0
 10
39.7574740677472889
 20
-149.4538019875178918
 30
0.0
 11
39.7574740677472889
 21
-149.2812928875968908
 31
0.0
  0
LINE
  5
23A
  8
0
 62
     0
 10
201.757474067747296
 20
-149.4538019875178918
 30
0.0
 11
201.757474067747296
 21
-149.2812928875968908
 31
0.0
  0
LINE
  5
23B
  8
0
 62
     0
 10
39.9374740677473028
 20
-149.4612928875970113
 30
0.0
 11
120.162774204172905
 21
-149.4612928875970113
 31
0.0
  0
LINE
  5
23C
  8
0
 62
     0
 10
201.5774740677472892
 20
-149.4612928875970113
 30
0.0
 11
121.3521739313216017
 21
-149.4612928875970113
 31
0.0
  0
SOLID
  5
23D
  8
0
 62
     0
 10
39.9374740677473028
 20
-149.4312928875968964
 30
0.0
 11
39.9374740677473028
 21
-149.4912928875970124
 31
0.0
 12
39.7574740677472889
 22
-149.4612928875970113
 32
0.0
 13
39.7574740677472889
 23
-149.4612928875970113
 33
0.0
  0
SOLID
  5
23E
  8
0
 62
     0
 10
201.5774740677472892
 20
-149.4312928875968964
 30
0.0
 11
201.5774740677472892
 21
-149.4912928875970124
 31
0.0
 12
201.757474067747296
 22
-149.4612928875970113
 32
0.0
 13
201.757474067747296
 23
-149.4612928875970113
 33
0.0
  0
INSERT
  5
23F
  8
0
  2
*U6
 10
0.0
 20
0.0
 30
0.0
  0
POINT
  5
240
  8
DEFPOINTS
 62
     0
 10
39.7574740677472889
 20
-149.5163019875178065
 30
0.0
  0
POINT
  5
241
  8
DEFPOINTS
 62
     0
 10
201.757474067747296
 20
-149.5163019875178065
 30
0.0
  0
POINT
  5
242
  8
DEFPOINTS
 62
     0
 10
201.757474067747296
 20
-149.4612928875970113
 30
0.0
  0
ENDBLK
  5
22D
  8
0
  0
BLOCK
  8
0
  2
*D3
 70
     1
 10
0.0
 20
0.0
 30
0.0
  3
*D3
  1

  0
LINE
  5
260
  8
0
 62
     0
 10
390.0996718949027127
 20
375.2952816590993734
 30
0.0
 11
390.0996718949027127
 21
399.4479626031475163
 31
0.0
  0
LINE
  5
261
  8
0
 62
     0
 10
716.5996718949028264
 20
367.7952816590993734
 30
0.0
 11
716.5996718949028264
 21
399.4479626031475163
 31
0.0
  0
LINE
  5
262
  8
0
 62
     0
 10
390.2796718949027195
 20
399.2679626031473958
 30
0.0
 11
552.7465613901275674
 21
399.2679626031473958
 31
0.0
  0
LINE
  5
263
  8
0
 62
     0
 10
716.419671894902649
 20
399.2679626031473958
 30
0.0
 11
553.9527823996776306
 21
399.2679626031473958
 31
0.0
  0
SOLID
  5
264
  8
0
 62
     0
 10
390.2796718949027195
 20
399.2979626031474254
 30
0.0
 11
390.2796718949027195
 21
399.23796260314748
 31
0.0
 12
390.0996718949027127
 22
399.2679626031473958
 32
0.0
 13
390.0996718949027127
 23
399.2679626031473958
 33
0.0
  0
SOLID
  5
265
  8
0
 62
     0
 10
716.419671894902649
 20
399.2979626031474254
 30
0.0
 11
716.419671894902649
 21
399.23796260314748
 31
0.0
 12
716.5996718949028264
 22
399.2679626031473958
 32
0.0
 13
716.5996718949028264
 23
399.2679626031473958
 33
0.0
  0
INSERT
  5
266
  8
0
  2
*U7
 10
0.0
 20
0.0
 30
0.0
  0
POINT
  5
267
  8
DEFPOINTS
 62
     0
 10
390.0996718949027127
 20
375.2327816590993734
 30
0.0
  0
POINT
  5
268
  8
DEFPOINTS
 62
     0
 10
716.5996718949028264
 20
367.7327816590993734
 30
0.0
  0
POINT
  5
269
  8
DEFPOINTS
 62
     0
 10
716.5996718949028264
 20
399.2679626031473958
 30
0.0
  0
ENDBLK
  5
254
  8
0
  0
BLOCK
  8
0
  2
*U5
 70
     1
 10
0.0
 20
0.0
 30
0.0
  3
*U5
  1

  0
TEXT
  5
34F
  8
0
 62
     0
 10
120.2253935766149056
 20
15.5879792492875602
 30
0.0
 40
0.18
  1
132.0000
  0
ENDBLK
  5
351
  8
0
  0
BLOCK
  8
0
  2
*U6
 70
     1
 10
0.0
 20
0.0
 30
0.0
  3
*U6
  1

  0
TEXT
  5
353
  8
0
 62
     0
 10
120.2253935766149056
 20
-149.549758099056703
 30
0.0
 40
0.18
  1
162.0000
  0
ENDBLK
  5
355
  8
0
  0
BLOCK
  8
0
  2
*U7
 70
     1
 10
0.0
 20
0.0
 30
0.0
  3
*U7
  1

  0
TEXT
  5
357
  8
0
 62
     0
 10
552.8260020449707781
 20
399.1795587832290835
 30
0.0
 40
0.18
  1
326.5000
  0
ENDBLK
  5
359
  8
0
  0
ENDSEC
  0
SECTION
  2
ENTITIES
  0
LINE
  5
247
  8
0
 10
390.0996718949027127
 20
204.7327816590994018
 30
0.0
 11
706.5996718949028264
 21
204.7327816590994018
 31
0.0
  0
LINE
  5
249
  8
0
 10
706.5996718949028264
 20
367.7327816590993734
 30
0.0
 11
390.0996718949027127
 21
367.7327816590993734
 31
0.0
  0
LINE
  5
24A
  8
0
 10
375.0996718949027127
 20
382.7327816590993734
 30
0.0
 11
375.0996718949027127
 21
189.7327816590992882
 31
0.0
  0
LINE
  5
24C
  8
0
 10
390.0996718949027127
 20
382.7327816590993734
 30
0.0
 11
375.0996718949027127
 21
382.7327816590993734
 31
0.0
  0
LINE
  5
24D
  8
0
 10
375.0996718949027127
 20
189.7327816590992882
 30
0.0
 11
390.0996718949027127
 21
189.7327816590992882
 31
0.0
  0
LINE
  5
24E
  8
0
 10
390.0996718949027127
 20
382.7327816590993734
 30
0.0
 11
390.0996718949027127
 21
367.7327816590993734
 31
0.0
  0
LINE
  5
24F
  8
0
 10
390.0996718949027127
 20
204.7327816590994018
 30
0.0
 11
390.0996718949027127
 21
189.7327816590992882
 31
0.0
  0
LINE
  5
2CA
  8
0
 10
706.5996718949028264
 20
204.7327816590994018
 30
0.0
 11
706.5996718949028264
 21
367.7327816590993734
 31
0.0
  0
ENDSEC
  0
EOF
