  0
SECTION
  2
HEADER
  9
$ACADVER
  1
AC1009
  9
$INSBASE
 10
0.0
 20
0.0
 30
0.0
  9
$EXTMIN
 10
-302.9027284809877756
 20
-258.3440297404972057
 30
0.0
  9
$EXTMAX
 10
5.1774454176186353
 20
-33.344029740497021
 30
0.0
  9
$LIMMIN
 10
0.0
 20
0.0
  9
$LIMMAX
 10
12.0
 20
9.0
  9
$ORTHOMODE
 70
     1
  9
$REGENMODE
 70
     1
  9
$FILLMODE
 70
     1
  9
$QTEXTMODE
 70
     0
  9
$MIRRTEXT
 70
     0
  9
$DRAGMODE
 70
     2
  9
$LTSCALE
 40
1.0
  9
$OSMODE
 70
  4095
  9
$ATTMODE
 70
     1
  9
$TEXTSIZE
 40
0.2
  9
$TRACEWID
 40
0.05
  9
$TEXTSTYLE
  7
STANDARD
  9
$CLAYER
  8
0
  9
$CELTYPE
  6
BYLAYER
  9
$CECOLOR
 62
   256
  9
$DIMSCALE
 40
1.0
  9
$DIMASZ
 40
0.18
  9
$DIMEXO
 40
0.0625
  9
$DIMDLI
 40
0.38
  9
$DIMRND
 40
0.0
  9
$DIMDLE
 40
0.0
  9
$DIMEXE
 40
0.18
  9
$DIMTP
 40
0.0
  9
$DIMTM
 40
0.0
  9
$DIMTXT
 40
0.18
  9
$DIMCEN
 40
0.09
  9
$DIMTSZ
 40
0.0
  9
$DIMTOL
 70
     0
  9
$DIMLIM
 70
     0
  9
$DIMTIH
 70
     1
  9
$DIMTOH
 70
     1
  9
$DIMSE1
 70
     0
  9
$DIMSE2
 70
     0
  9
$DIMTAD
 70
     0
  9
$DIMZIN
 70
     0
  9
$DIMBLK
  1

  9
$DIMASO
 70
     1
  9
$DIMSHO
 70
     1
  9
$DIMPOST
  1

  9
$DIMAPOST
  1

  9
$DIMALT
 70
     0
  9
$DIMALTD
 70
     2
  9
$DIMALTF
 40
25.3999999999999986
  9
$DIMLFAC
 40
1.0
  9
$DIMTOFL
 70
     0
  9
$DIMTVP
 40
0.0
  9
$DIMTIX
 70
     0
  9
$DIMSOXD
 70
     0
  9
$DIMSAH
 70
     0
  9
$DIMBLK1
  1

  9
$DIMBLK2
  1

  9
$DIMSTYLE
  2
STANDARD
  9
$DIMCLRD
 70
     0
  9
$DIMCLRE
 70
     0
  9
$DIMCLRT
 70
     0
  9
$DIMTFAC
 40
1.0
  9
$DIMGAP
 40
0.09
  9
$LUNITS
 70
     2
  9
$LUPREC
 70
     4
  9
$SKETCHINC
 40
0.1
  9
$FILLETRAD
 40
0.0
  9
$AUNITS
 70
     0
  9
$AUPREC
 70
     0
  9
$MENU
  1
.
  9
$ELEVATION
 40
0.0
  9
$PELEVATION
 40
0.0
  9
$THICKNESS
 40
0.0
  9
$LIMCHECK
 70
     0
  9
$BLIPMODE
 70
     0
  9
$CHAMFERA
 40
0.0
  9
$CHAMFERB
 40
0.0
  9
$SKPOLY
 70
     0
  9
$TDCREATE
 40
2460503.509479166008532
  9
$TDUPDATE
 40
2460503.7536574080586433
  9
$TDINDWG
 40
0.0381828704
  9
$TDUSRTIMER
 40
0.0381828704
  9
$USRTIMER
 70
     1
  9
$ANGBASE
 50
0.0
  9
$ANGDIR
 70
     0
  9
$PDMODE
 70
     0
  9
$PDSIZE
 40
0.0
  9
$PLINEWID
 40
0.0
  9
$COORDS
 70
     1
  9
$SPLFRAME
 70
     0
  9
$SPLINETYPE
 70
     6
  9
$SPLINESEGS
 70
     8
  9
$ATTDIA
 70
     1
  9
$ATTREQ
 70
     1
  9
$HANDLING
 70
     1
  9
$HANDSEED
  5
4BE
  9
$SURFTAB1
 70
     6
  9
$SURFTAB2
 70
     6
  9
$SURFTYPE
 70
     6
  9
$SURFU
 70
     6
  9
$SURFV
 70
     6
  9
$UCSNAME
  2

  9
$UCSORG
 10
0.0
 20
0.0
 30
0.0
  9
$UCSXDIR
 10
1.0
 20
0.0
 30
0.0
  9
$UCSYDIR
 10
0.0
 20
1.0
 30
0.0
  9
$PUCSNAME
  2

  9
$PUCSORG
 10
0.0
 20
0.0
 30
0.0
  9
$PUCSXDIR
 10
1.0
 20
0.0
 30
0.0
  9
$PUCSYDIR
 10
0.0
 20
1.0
 30
0.0
  9
$USERI1
 70
     0
  9
$USERI2
 70
     0
  9
$USERI3
 70
     0
  9
$USERI4
 70
     0
  9
$USERI5
 70
     0
  9
$USERR1
 40
0.0
  9
$USERR2
 40
0.0
  9
$USERR3
 40
0.0
  9
$USERR4
 40
0.0
  9
$USERR5
 40
0.0
  9
$WORLDVIEW
 70
     1
  9
$SHADEDGE
 70
     3
  9
$SHADEDIF
 70
    70
  9
$TILEMODE
 70
     1
  9
$MAXACTVP
 70
    64
  9
$PLIMCHECK
 70
     0
  9
$PEXTMIN
 10
0.0
 20
0.0
 30
0.0
  9
$PEXTMAX
 10
0.0
 20
0.0
 30
0.0
  9
$PLIMMIN
 10
0.0
 20
0.0
  9
$PLIMMAX
 10
12.0
 20
9.0
  9
$UNITMODE
 70
     0
  9
$VISRETAIN
 70
     1
  9
$PLINEGEN
 70
     0
  9
$PSLTSCALE
 70
     1
  0
ENDSEC
  0
SECTION
  2
TABLES
  0
TABLE
  2
VPORT
 70
     1
  0
VPORT
  2
*ACTIVE
 70
     0
 10
0.0
 20
0.0
 11
1.0
 21
1.0
 12
1087.651896965656988
 22
-805.1703776574601079
 13
0.0
 23
0.0
 14
0.5
 24
0.5
 15
0.5
 25
0.5
 16
0.0
 26
0.0
 36
1.0
 17
0.0
 27
0.0
 37
0.0
 40
4039.4791077869022047
 41
2.3650990099009901
 42
50.0
 43
0.0
 44
0.0
 50
0.0
 51
0.0
 71
     0
 72
  1000
 73
     1
 74
     3
 75
     0
 76
     1
 77
     0
 78
     0
  0
ENDTAB
  0
TABLE
  2
LTYPE
 70
     2
  0
LTYPE
  2
CONTINUOUS
 70
     0
  3
Solid line
 72
    65
 73
     0
 40
0.0
  0
ENDTAB
  0
TABLE
  2
LAYER
 70
     2
  0
LAYER
  2
0
 70
     0
 62
     7
  6
CONTINUOUS
  0
LAYER
  2
DEFPOINTS
 70
     0
 62
     7
  6
CONTINUOUS
  0
ENDTAB
  0
TABLE
  2
STYLE
 70
     2
  0
STYLE
  2
STANDARD
 70
     0
 40
0.0
 41
1.0
 50
0.0
 71
     0
 42
0.2
  3
txt
  4

  0
STYLE
  2
ANNOTATIVE
 70
     0
 40
0.0
 41
1.0
 50
0.0
 71
     0
 42
0.2
  3
txt
  4

  0
ENDTAB
  0
TABLE
  2
VIEW
 70
     0
  0
ENDTAB
  0
TABLE
  2
UCS
 70
     0
  0
ENDTAB
  0
TABLE
  2
APPID
 70
     8
  0
APPID
  2
ACAD
 70
     0
  0
APPID
  2
ACADANNOTATIVE
 70
     0
  0
APPID
  2
ACADANNOPO
 70
     0
  0
APPID
  2
ACAD_DSTYLE_DIMJAG
 70
     0
  0
APPID
  2
ACAD_DSTYLE_DIMTALN
 70
     0
  0
APPID
  2
ACAD_MLEADERVER
 70
     0
  0
APPID
  2
ACAD_NAV_VCDISPLAY
 70
     0
  0
APPID
  2
ACAD_EXEMPT_FROM_CAD_STANDARDS
 70
     0
  0
ENDTAB
  0
TABLE
  2
DIMSTYLE
 70
     3
  0
DIMSTYLE
  2
STANDARD
 70
     0
  3

  4

  5

  6

  7

 40
1.0
 41
0.18
 42
0.0625
 43
0.38
 44
0.18
 45
0.0
 46
0.0
 47
0.0
 48
0.0
140
0.18
141
0.09
142
0.0
143
25.3999999999999986
144
1.0
145
0.0
146
1.0
147
0.09
 71
     0
 72
     0
 73
     1
 74
     1
 75
     0
 76
     0
 77
     0
 78
     0
170
     0
171
     2
172
     0
173
     0
174
     0
175
     0
176
     0
177
     0
178
     0
  0
DIMSTYLE
  2
ANNOTATIVE
 70
     0
  3

  4

  5

  6

  7

 40
0.0
 41
0.18
 42
0.0625
 43
0.38
 44
0.18
 45
0.0
 46
0.0
 47
0.0
 48
0.0
140
0.18
141
0.09
142
0.0
143
25.3999999999999986
144
1.0
145
0.0
146
1.0
147
0.09
 71
     0
 72
     0
 73
     1
 74
     1
 75
     0
 76
     0
 77
     0
 78
     0
170
     0
171
     2
172
     0
173
     0
174
     0
175
     0
176
     0
177
     0
178
     0
  0
ENDTAB
  0
ENDSEC
  0
SECTION
  2
BLOCKS
  0
BLOCK
  8
0
  2
$MODEL_SPACE
 70
     0
 10
0.0
 20
0.0
 30
0.0
  3
$MODEL_SPACE
  1

  0
ENDBLK
  5
33A
  8
0
  0
BLOCK
 67
     1
  8
0
  2
$PAPER_SPACE
 70
     0
 10
0.0
 20
0.0
 30
0.0
  3
$PAPER_SPACE
  1

  0
ENDBLK
  5
336
 67
     1
  8
0
  0
BLOCK
  8
0
  2
*D3
 70
     1
 10
0.0
 20
0.0
 30
0.0
  3
*D3
  1

  0
LINE
  5
356
  8
0
 62
     0
 10
-262.805550287504218
 20
-48.3440297404970494
 30
0.0
 11
-302.5427284809878756
 21
-48.3440297404970565
 31
0.0
  0
LINE
  5
357
  8
0
 62
     0
 10
-262.805550287504218
 20
-241.344029740497092
 30
0.0
 11
-302.5427284809878188
 21
-241.344029740497092
 31
0.0
  0
LINE
  5
358
  8
0
 62
     0
 10
-302.3627284809879256
 20
-48.5240297404970633
 30
0.0
 11
-302.362728480987812
 21
-144.6640297404969999
 31
0.0
  0
LINE
  5
359
  8
0
 62
     0
 10
-302.362728480987812
 20
-241.1640297404971136
 30
0.0
 11
-302.362728480987812
 21
-145.0240297404970136
 31
0.0
  0
SOLID
  5
35A
  8
0
 62
     0
 10
-302.3927284809877847
 20
-48.5240297404970633
 30
0.0
 11
-302.3327284809878961
 21
-48.5240297404970633
 31
0.0
 12
-302.3627284809879256
 22
-48.3440297404970565
 32
0.0
 13
-302.3627284809879256
 23
-48.3440297404970565
 33
0.0
  0
SOLID
  5
35B
  8
0
 62
     0
 10
-302.3927284809877847
 20
-241.1640297404971136
 30
0.0
 11
-302.3327284809877824
 21
-241.1640297404971136
 31
0.0
 12
-302.362728480987812
 22
-241.344029740497092
 32
0.0
 13
-302.362728480987812
 23
-241.344029740497092
 33
0.0
  0
INSERT
  5
35C
  8
0
  2
*U9
 10
0.0
 20
0.0
 30
0.0
  0
POINT
  5
35D
  8
DEFPOINTS
 62
     0
 10
-262.743050287504218
 20
-48.3440297404970494
 30
0.0
  0
POINT
  5
35E
  8
DEFPOINTS
 62
     0
 10
-262.743050287504218
 20
-241.344029740497092
 30
0.0
  0
POINT
  5
35F
  8
DEFPOINTS
 62
     0
 10
-302.362728480987812
 20
-241.344029740497092
 30
0.0
  0
ENDBLK
  5
355
  8
0
  0
BLOCK
  8
0
  2
*D4
 70
     1
 10
0.0
 20
0.0
 30
0.0
  3
*D4
  1

  0
LINE
  5
364
  8
0
 62
     0
 10
-262.805550287504218
 20
-48.3440297404970494
 30
0.0
 11
-302.4185297996572217
 21
-48.3440297404970565
 31
0.0
  0
LINE
  5
365
  8
0
 62
     0
 10
-262.805550287504218
 20
-241.344029740497092
 30
0.0
 11
-302.418529799657108
 21
-241.344029740497092
 31
0.0
  0
LINE
  5
366
  8
0
 62
     0
 10
-302.2385297996572149
 20
-48.5240297404970633
 30
0.0
 11
-302.2385297996572149
 21
-144.6640297404969999
 31
0.0
  0
LINE
  5
367
  8
0
 62
     0
 10
-302.2385297996572149
 20
-241.1640297404971136
 30
0.0
 11
-302.2385297996572149
 21
-145.0240297404970136
 31
0.0
  0
SOLID
  5
368
  8
0
 62
     0
 10
-302.2685297996571876
 20
-48.5240297404970633
 30
0.0
 11
-302.2085297996571853
 21
-48.5240297404970633
 31
0.0
 12
-302.2385297996572149
 22
-48.3440297404970565
 32
0.0
 13
-302.2385297996572149
 23
-48.3440297404970565
 33
0.0
  0
SOLID
  5
369
  8
0
 62
     0
 10
-302.2685297996570739
 20
-241.1640297404971136
 30
0.0
 11
-302.2085297996571853
 21
-241.1640297404971136
 31
0.0
 12
-302.2385297996572149
 22
-241.344029740497092
 32
0.0
 13
-302.2385297996572149
 23
-241.344029740497092
 33
0.0
  0
INSERT
  5
36A
  8
0
  2
*U10
 10
0.0
 20
0.0
 30
0.0
  0
POINT
  5
36B
  8
DEFPOINTS
 62
     0
 10
-262.743050287504218
 20
-48.3440297404970494
 30
0.0
  0
POINT
  5
36C
  8
DEFPOINTS
 62
     0
 10
-262.743050287504218
 20
-241.344029740497092
 30
0.0
  0
POINT
  5
36D
  8
DEFPOINTS
 62
     0
 10
-302.2385297996572149
 20
-241.344029740497092
 30
0.0
  0
ENDBLK
  5
363
  8
0
  0
BLOCK
  8
0
  2
*D5
 70
     1
 10
0.0
 20
0.0
 30
0.0
  3
*D5
  1

  0
LINE
  5
377
  8
0
 62
     0
 10
-181.1805502875041043
 20
-33.3440297404970494
 30
0.0
 11
-37.2292921064239408
 21
-33.344029740497021
 31
0.0
  0
LINE
  5
378
  8
0
 62
     0
 10
-181.1805502875041043
 20
-258.3440297404972057
 30
0.0
 11
-37.2292921064238911
 21
-258.344029740497092
 31
0.0
  0
LINE
  5
379
  8
0
 62
     0
 10
-37.4092921064239476
 20
-33.5240297404970207
 30
0.0
 11
-37.4092921064239334
 21
-145.6640297404969999
 31
0.0
  0
LINE
  5
37A
  8
0
 62
     0
 10
-37.4092921064239121
 20
-258.1640297404970852
 30
0.0
 11
-37.4092921064239334
 21
-146.0240297404970136
 31
0.0
  0
SOLID
  5
37B
  8
0
 62
     0
 10
-37.439292106423963
 20
-33.5240297404970207
 30
0.0
 11
-37.3792921064239465
 21
-33.5240297404970207
 31
0.0
 12
-37.4092921064239476
 22
-33.344029740497021
 32
0.0
 13
-37.4092921064239476
 23
-33.344029740497021
 33
0.0
  0
SOLID
  5
37C
  8
0
 62
     0
 10
-37.4392921064239133
 20
-258.1640297404970852
 30
0.0
 11
-37.3792921064238968
 21
-258.1640297404970852
 31
0.0
 12
-37.4092921064239121
 22
-258.344029740497092
 32
0.0
 13
-37.4092921064239121
 23
-258.344029740497092
 33
0.0
  0
INSERT
  5
37D
  8
0
  2
*U11
 10
0.0
 20
0.0
 30
0.0
  0
POINT
  5
37E
  8
DEFPOINTS
 62
     0
 10
-181.2430502875041043
 20
-33.3440297404970494
 30
0.0
  0
POINT
  5
37F
  8
DEFPOINTS
 62
     0
 10
-181.2430502875041043
 20
-258.3440297404972057
 30
0.0
  0
POINT
  5
380
  8
DEFPOINTS
 62
     0
 10
-37.4092921064239121
 20
-258.344029740497092
 30
0.0
  0
ENDBLK
  5
376
  8
0
  0
BLOCK
  8
0
  2
*D6
 70
     1
 10
0.0
 20
0.0
 30
0.0
  3
*D6
  1

  0
LINE
  5
3D4
  8
0
 62
     0
 10
-262.680550287504218
 20
-48.3440297404970494
 30
0.0
 11
-223.6063934213302105
 21
-48.3440297404970494
 31
0.0
  0
LINE
  5
3D5
  8
0
 62
     0
 10
-262.6805502875039906
 20
-134.8440297404970067
 30
0.0
 11
-223.6063934213302105
 21
-134.8440297404970067
 31
0.0
  0
LINE
  5
3D6
  8
0
 62
     0
 10
-223.7863934213303025
 20
-48.5240297404970491
 30
0.0
 11
-223.7863934213301889
 21
-91.4140297404970141
 31
0.0
  0
LINE
  5
3D7
  8
0
 62
     0
 10
-223.7863934213301889
 20
-134.6640297404969999
 30
0.0
 11
-223.7863934213301889
 21
-91.7740297404970278
 31
0.0
  0
SOLID
  5
3D8
  8
0
 62
     0
 10
-223.81639342133019
 20
-48.5240297404970491
 30
0.0
 11
-223.7563934213301877
 21
-48.5240297404970491
 31
0.0
 12
-223.7863934213303025
 22
-48.3440297404970494
 32
0.0
 13
-223.7863934213303025
 23
-48.3440297404970494
 33
0.0
  0
SOLID
  5
3D9
  8
0
 62
     0
 10
-223.81639342133019
 20
-134.6640297404969999
 30
0.0
 11
-223.7563934213301877
 21
-134.6640297404969999
 31
0.0
 12
-223.7863934213301889
 22
-134.8440297404970067
 32
0.0
 13
-223.7863934213301889
 23
-134.8440297404970067
 33
0.0
  0
INSERT
  5
3DA
  8
0
  2
*U12
 10
0.0
 20
0.0
 30
0.0
  0
POINT
  5
3DB
  8
DEFPOINTS
 62
     0
 10
-262.743050287504218
 20
-48.3440297404970494
 30
0.0
  0
POINT
  5
3DC
  8
DEFPOINTS
 62
     0
 10
-262.7430502875041043
 20
-134.8440297404970067
 30
0.0
  0
POINT
  5
3DD
  8
DEFPOINTS
 62
     0
 10
-223.7863934213301889
 20
-134.8440297404970067
 30
0.0
  0
ENDBLK
  5
3D3
  8
0
  0
BLOCK
  8
0
  2
*D7
 70
     1
 10
0.0
 20
0.0
 30
0.0
  3
*D7
  1

  0
LINE
  5
3E2
  8
0
 62
     0
 10
-263.1568501232142125
 20
-33.3440297404970494
 30
0.0
 11
-240.2454688582560891
 21
-33.3440297404970494
 31
0.0
  0
LINE
  5
3E3
  8
0
 62
     0
 10
-263.1568501232139852
 20
-134.8440297404970067
 30
0.0
 11
-240.2454688582560891
 21
-134.8440297404970067
 31
0.0
  0
LINE
  5
3E4
  8
0
 62
     0
 10
-240.4254688582560959
 20
-33.5240297404970491
 30
0.0
 11
-240.4254688582560959
 21
-83.9140297404970426
 31
0.0
  0
LINE
  5
3E5
  8
0
 62
     0
 10
-240.4254688582560959
 20
-134.6640297404969999
 30
0.0
 11
-240.4254688582560959
 21
-84.2740297404970562
 31
0.0
  0
SOLID
  5
3E6
  8
0
 62
     0
 10
-240.4554688582560971
 20
-33.5240297404970491
 30
0.0
 11
-240.3954688582560948
 21
-33.5240297404970491
 31
0.0
 12
-240.4254688582560959
 22
-33.3440297404970494
 32
0.0
 13
-240.4254688582560959
 23
-33.3440297404970494
 33
0.0
  0
SOLID
  5
3E7
  8
0
 62
     0
 10
-240.4554688582560971
 20
-134.6640297404969999
 30
0.0
 11
-240.3954688582560948
 21
-134.6640297404969999
 31
0.0
 12
-240.4254688582560959
 22
-134.8440297404970067
 32
0.0
 13
-240.4254688582560959
 23
-134.8440297404970067
 33
0.0
  0
INSERT
  5
3E8
  8
0
  2
*U13
 10
0.0
 20
0.0
 30
0.0
  0
POINT
  5
3E9
  8
DEFPOINTS
 62
     0
 10
-263.2193501232142125
 20
-33.3440297404970494
 30
0.0
  0
POINT
  5
3EA
  8
DEFPOINTS
 62
     0
 10
-263.2193501232139852
 20
-134.8440297404970067
 30
0.0
  0
POINT
  5
3EB
  8
DEFPOINTS
 62
     0
 10
-240.4254688582560959
 20
-134.8440297404970067
 30
0.0
  0
ENDBLK
  5
3E1
  8
0
  0
BLOCK
  8
0
  2
*D8
 70
     1
 10
0.0
 20
0.0
 30
0.0
  3
*D8
  1

  0
LINE
  5
3F8
  8
0
 62
     0
 10
-181.1805502875041043
 20
-33.3440297404970494
 30
0.0
 11
4.7874454176186489
 21
-33.344029740497021
 31
0.0
  0
LINE
  5
3F9
  8
0
 62
     0
 10
-181.1805502875041043
 20
-258.3440297404972057
 30
0.0
 11
4.7874454176186996
 21
-258.344029740497092
 31
0.0
  0
LINE
  5
3FA
  8
0
 62
     0
 10
4.607445417618651
 20
-33.5240297404970207
 30
0.0
 11
4.6074454176186759
 21
-145.6640297404969999
 31
0.0
  0
LINE
  5
3FB
  8
0
 62
     0
 10
4.6074454176187016
 20
-258.1640297404970852
 30
0.0
 11
4.6074454176186768
 21
-146.0240297404970136
 31
0.0
  0
SOLID
  5
3FC
  8
0
 62
     0
 10
4.5774454176186508
 20
-33.5240297404970207
 30
0.0
 11
4.6374454176186521
 21
-33.5240297404970207
 31
0.0
 12
4.607445417618651
 22
-33.344029740497021
 32
0.0
 13
4.607445417618651
 23
-33.344029740497021
 33
0.0
  0
SOLID
  5
3FD
  8
0
 62
     0
 10
4.5774454176187023
 20
-258.1640297404970852
 30
0.0
 11
4.6374454176187019
 21
-258.1640297404970852
 31
0.0
 12
4.6074454176187016
 22
-258.344029740497092
 32
0.0
 13
4.6074454176187016
 23
-258.344029740497092
 33
0.0
  0
INSERT
  5
3FE
  8
0
  2
*U14
 10
0.0
 20
0.0
 30
0.0
  0
POINT
  5
3FF
  8
DEFPOINTS
 62
     0
 10
-181.2430502875041043
 20
-33.3440297404970494
 30
0.0
  0
POINT
  5
400
  8
DEFPOINTS
 62
     0
 10
-181.2430502875041043
 20
-258.3440297404972057
 30
0.0
  0
POINT
  5
401
  8
DEFPOINTS
 62
     0
 10
4.6074454176187016
 20
-258.344029740497092
 30
0.0
  0
ENDBLK
  5
3F7
  8
0
  0
BLOCK
  8
0
  2
*U9
 70
     1
 10
0.0
 20
0.0
 30
0.0
  3
*U9
  1

  0
TEXT
  5
4A7
  8
0
 62
     0
 10
-302.9027284809877756
 20
-144.9340297404968965
 30
0.0
 40
0.18
  1
193.0000
  0
ENDBLK
  5
4A9
  8
0
  0
BLOCK
  8
0
  2
*U10
 70
     1
 10
0.0
 20
0.0
 30
0.0
  3
*U10
  1

  0
TEXT
  5
4AB
  8
0
 62
     0
 10
-302.7785297996571785
 20
-144.9340297404968965
 30
0.0
 40
0.18
  1
193.0000
  0
ENDBLK
  5
4AD
  8
0
  0
BLOCK
  8
0
  2
*U11
 70
     1
 10
0.0
 20
0.0
 30
0.0
  3
*U11
  1

  0
TEXT
  5
4AF
  8
0
 62
     0
 10
-37.9792921064239621
 20
-145.9340297404970102
 30
0.0
 40
0.18
  1
225.0000
  0
ENDBLK
  5
4B1
  8
0
  0
BLOCK
  8
0
  2
*U12
 70
     1
 10
0.0
 20
0.0
 30
0.0
  3
*U12
  1

  0
TEXT
  5
4B3
  8
0
 62
     0
 10
-224.2813934213301934
 20
-91.6840297404969533
 30
0.0
 40
0.18
  1
86.5000
  0
ENDBLK
  5
4B5
  8
0
  0
BLOCK
  8
0
  2
*U13
 70
     1
 10
0.0
 20
0.0
 30
0.0
  3
*U13
  1

  0
TEXT
  5
4B7
  8
0
 62
     0
 10
-240.9354688582560016
 20
-84.1840297404969533
 30
0.0
 40
0.18
  1
101.5000
  0
ENDBLK
  5
4B9
  8
0
  0
BLOCK
  8
0
  2
*U14
 70
     1
 10
0.0
 20
0.0
 30
0.0
  3
*U14
  1

  0
TEXT
  5
4BB
  8
0
 62
     0
 10
4.0374454176186338
 20
-145.9340297404970102
 30
0.0
 40
0.18
  1
225.0000
  0
ENDBLK
  5
4BD
  8
0
  0
ENDSEC
  0
SECTION
  2
ENTITIES
  0
LINE
  5
210
  8
0
 10
-277.7430502875041043
 20
-33.3440297404970423
 30
0.0
 11
-84.743050287504019
 21
-33.3440297404970423
 31
0.0
  0
LINE
  5
211
  8
0
 10
-277.7430502875041043
 20
-33.3440297404970423
 30
0.0
 11
-277.7430502875041043
 21
-48.344029740497021
 31
0.0
  0
LINE
  5
212
  8
0
 10
-277.7430502875041043
 20
-48.344029740497021
 30
0.0
 11
-262.7430502875041043
 21
-48.344029740497021
 31
0.0
  0
LINE
  5
213
  8
0
 10
-262.7430502875041043
 20
-48.344029740497021
 30
0.0
 11
-262.7430502875041043
 21
-134.8440297404970067
 31
0.0
  0
LINE
  5
273
  8
0
 10
-99.743050287504019
 20
-48.344029740497021
 30
0.0
 11
-99.743050287504019
 21
-134.8440297404970067
 31
0.0
  0
LINE
  5
276
  8
0
 10
-99.743050287504019
 20
-48.344029740497021
 30
0.0
 11
-84.743050287504019
 21
-48.344029740497021
 31
0.0
  0
LINE
  5
277
  8
0
 10
-84.743050287504019
 20
-48.344029740497021
 30
0.0
 11
-84.743050287504019
 21
-33.3440297404970423
 31
0.0
  0
LINE
  5
36E
  8
0
 10
-262.7430502875041043
 20
-258.3440297404969783
 30
0.0
 11
-99.743050287504019
 21
-258.3440297404969783
 31
0.0
  0
LINE
  5
371
  8
0
 10
-262.7430502875041043
 20
-241.3440297404970067
 30
0.0
 11
-262.7430502875041043
 21
-258.3440297404969783
 31
0.0
  0
LINE
  5
372
  8
0
 10
-99.743050287504019
 20
-241.3440297404970067
 30
0.0
 11
-99.7430502875040048
 21
-258.3440297404969783
 31
0.0
  0
LINE
  5
3EC
  8
0
 10
-262.7430502875041043
 20
-134.8440297404970067
 30
0.0
 11
-277.7430502875041043
 21
-134.8440297404970067
 31
0.0
  0
LINE
  5
3ED
  8
0
 10
-277.7430502875041043
 20
-134.8440297404970067
 30
0.0
 11
-277.7430502875041043
 21
-149.8440297404970067
 31
0.0
  0
LINE
  5
3EE
  8
0
 10
-277.7430502875041043
 20
-149.8440297404970067
 30
0.0
 11
-262.7430502875041043
 21
-149.8440297404970067
 31
0.0
  0
LINE
  5
3EF
  8
0
 10
-99.743050287504019
 20
-134.8440297404970067
 30
0.0
 11
-84.743050287504019
 21
-134.8440297404970067
 31
0.0
  0
LINE
  5
3F0
  8
0
 10
-84.743050287504019
 20
-134.8440297404970067
 30
0.0
 11
-84.743050287504019
 21
-149.8440297404970067
 31
0.0
  0
LINE
  5
3F1
  8
0
 10
-84.743050287504019
 20
-149.8440297404970067
 30
0.0
 11
-99.743050287504019
 21
-149.8440297404970067
 31
0.0
  0
LINE
  5
3F2
  8
0
 10
-262.7430502875041043
 20
-149.8440297404970067
 30
0.0
 11
-262.7430502875041043
 21
-241.3440297404970067
 31
0.0
  0
LINE
  5
3F3
  8
0
 10
-99.743050287504019
 20
-149.8440297404970067
 30
0.0
 11
-99.743050287504019
 21
-241.3440297404970067
 31
0.0
  0
ENDSEC
  0
EOF
