  0
SECTION
  2
HEADER
  9
$ACADVER
  1
AC1009
  9
$INSBASE
 10
0.0
 20
0.0
 30
0.0
  9
$EXTMIN
 10
35.7570762972680996
 20
-376.3900541330900751
 30
0.0
  9
$EXTMAX
 10
195.7570762972680996
 20
63.6099458669099604
 30
0.0
  9
$LIMMIN
 10
0.0
 20
0.0
  9
$LIMMAX
 10
12.0
 20
9.0
  9
$ORTHOMODE
 70
     1
  9
$REGENMODE
 70
     1
  9
$FILLMODE
 70
     1
  9
$QTEXTMODE
 70
     0
  9
$MIRRTEXT
 70
     0
  9
$DRAGMODE
 70
     2
  9
$LTSCALE
 40
1.0
  9
$OSMODE
 70
  4095
  9
$ATTMODE
 70
     1
  9
$TEXTSIZE
 40
0.2
  9
$TRACEWID
 40
0.05
  9
$TEXTSTYLE
  7
STANDARD
  9
$CLAYER
  8
0
  9
$CELTYPE
  6
BYLAYER
  9
$CECOLOR
 62
   256
  9
$DIMSCALE
 40
1.0
  9
$DIMASZ
 40
0.18
  9
$DIMEXO
 40
0.0625
  9
$DIMDLI
 40
0.38
  9
$DIMRND
 40
0.0
  9
$DIMDLE
 40
0.0
  9
$DIMEXE
 40
0.18
  9
$DIMTP
 40
0.0
  9
$DIMTM
 40
0.0
  9
$DIMTXT
 40
0.18
  9
$DIMCEN
 40
0.09
  9
$DIMTSZ
 40
0.0
  9
$DIMTOL
 70
     0
  9
$DIMLIM
 70
     0
  9
$DIMTIH
 70
     1
  9
$DIMTOH
 70
     1
  9
$DIMSE1
 70
     0
  9
$DIMSE2
 70
     0
  9
$DIMTAD
 70
     0
  9
$DIMZIN
 70
     0
  9
$DIMBLK
  1

  9
$DIMASO
 70
     1
  9
$DIMSHO
 70
     1
  9
$DIMPOST
  1

  9
$DIMAPOST
  1

  9
$DIMALT
 70
     0
  9
$DIMALTD
 70
     2
  9
$DIMALTF
 40
25.3999999999999986
  9
$DIMLFAC
 40
1.0
  9
$DIMTOFL
 70
     0
  9
$DIMTVP
 40
0.0
  9
$DIMTIX
 70
     0
  9
$DIMSOXD
 70
     0
  9
$DIMSAH
 70
     0
  9
$DIMBLK1
  1

  9
$DIMBLK2
  1

  9
$DIMSTYLE
  2
STANDARD
  9
$DIMCLRD
 70
     0
  9
$DIMCLRE
 70
     0
  9
$DIMCLRT
 70
     0
  9
$DIMTFAC
 40
1.0
  9
$DIMGAP
 40
0.09
  9
$LUNITS
 70
     2
  9
$LUPREC
 70
     4
  9
$SKETCHINC
 40
0.1
  9
$FILLETRAD
 40
0.0
  9
$AUNITS
 70
     0
  9
$AUPREC
 70
     0
  9
$MENU
  1
.
  9
$ELEVATION
 40
0.0
  9
$PELEVATION
 40
0.0
  9
$THICKNESS
 40
0.0
  9
$LIMCHECK
 70
     0
  9
$BLIPMODE
 70
     0
  9
$CHAMFERA
 40
0.0
  9
$CHAMFERB
 40
0.0
  9
$SKPOLY
 70
     0
  9
$TDCREATE
 40
2460503.5140856481157243
  9
$TDUPDATE
 40
2460503.6617361111566424
  9
$TDINDWG
 40
0.0120717593
  9
$TDUSRTIMER
 40
0.0120717593
  9
$USRTIMER
 70
     1
  9
$ANGBASE
 50
0.0
  9
$ANGDIR
 70
     0
  9
$PDMODE
 70
     0
  9
$PDSIZE
 40
0.0
  9
$PLINEWID
 40
0.0
  9
$COORDS
 70
     1
  9
$SPLFRAME
 70
     0
  9
$SPLINETYPE
 70
     6
  9
$SPLINESEGS
 70
     8
  9
$ATTDIA
 70
     1
  9
$ATTREQ
 70
     1
  9
$HANDLING
 70
     1
  9
$HANDSEED
  5
48A
  9
$SURFTAB1
 70
     6
  9
$SURFTAB2
 70
     6
  9
$SURFTYPE
 70
     6
  9
$SURFU
 70
     6
  9
$SURFV
 70
     6
  9
$UCSNAME
  2

  9
$UCSORG
 10
0.0
 20
0.0
 30
0.0
  9
$UCSXDIR
 10
1.0
 20
0.0
 30
0.0
  9
$UCSYDIR
 10
0.0
 20
1.0
 30
0.0
  9
$PUCSNAME
  2

  9
$PUCSORG
 10
0.0
 20
0.0
 30
0.0
  9
$PUCSXDIR
 10
1.0
 20
0.0
 30
0.0
  9
$PUCSYDIR
 10
0.0
 20
1.0
 30
0.0
  9
$USERI1
 70
     0
  9
$USERI2
 70
     0
  9
$USERI3
 70
     0
  9
$USERI4
 70
     0
  9
$USERI5
 70
     0
  9
$USERR1
 40
0.0
  9
$USERR2
 40
0.0
  9
$USERR3
 40
0.0
  9
$USERR4
 40
0.0
  9
$USERR5
 40
0.0
  9
$WORLDVIEW
 70
     1
  9
$SHADEDGE
 70
     3
  9
$SHADEDIF
 70
    70
  9
$TILEMODE
 70
     1
  9
$MAXACTVP
 70
    64
  9
$PLIMCHECK
 70
     0
  9
$PEXTMIN
 10
0.0
 20
0.0
 30
0.0
  9
$PEXTMAX
 10
0.0
 20
0.0
 30
0.0
  9
$PLIMMIN
 10
0.0
 20
0.0
  9
$PLIMMAX
 10
12.0
 20
9.0
  9
$UNITMODE
 70
     0
  9
$VISRETAIN
 70
     1
  9
$PLINEGEN
 70
     0
  9
$PSLTSCALE
 70
     1
  0
ENDSEC
  0
SECTION
  2
TABLES
  0
TABLE
  2
VPORT
 70
     1
  0
VPORT
  2
*ACTIVE
 70
     0
 10
0.0
 20
0.0
 11
1.0
 21
1.0
 12
966.3271818739707442
 22
-239.810948496974504
 13
0.0
 23
0.0
 14
0.5
 24
0.5
 15
0.5
 25
0.5
 16
0.0
 26
0.0
 36
1.0
 17
0.0
 27
0.0
 37
0.0
 40
1841.2293086629920253
 41
2.3650990099009901
 42
50.0
 43
0.0
 44
0.0
 50
0.0
 51
0.0
 71
     0
 72
  1000
 73
     1
 74
     3
 75
     0
 76
     1
 77
     0
 78
     0
  0
ENDTAB
  0
TABLE
  2
LTYPE
 70
     2
  0
LTYPE
  2
CONTINUOUS
 70
     0
  3
Solid line
 72
    65
 73
     0
 40
0.0
  0
ENDTAB
  0
TABLE
  2
LAYER
 70
     2
  0
LAYER
  2
0
 70
     0
 62
     7
  6
CONTINUOUS
  0
LAYER
  2
DEFPOINTS
 70
     0
 62
     7
  6
CONTINUOUS
  0
ENDTAB
  0
TABLE
  2
STYLE
 70
     2
  0
STYLE
  2
STANDARD
 70
     0
 40
0.0
 41
1.0
 50
0.0
 71
     0
 42
0.2
  3
txt
  4

  0
STYLE
  2
ANNOTATIVE
 70
     0
 40
0.0
 41
1.0
 50
0.0
 71
     0
 42
0.2
  3
txt
  4

  0
ENDTAB
  0
TABLE
  2
VIEW
 70
     0
  0
ENDTAB
  0
TABLE
  2
UCS
 70
     0
  0
ENDTAB
  0
TABLE
  2
APPID
 70
     8
  0
APPID
  2
ACAD
 70
     0
  0
APPID
  2
ACADANNOTATIVE
 70
     0
  0
APPID
  2
ACADANNOPO
 70
     0
  0
APPID
  2
ACAD_DSTYLE_DIMJAG
 70
     0
  0
APPID
  2
ACAD_DSTYLE_DIMTALN
 70
     0
  0
APPID
  2
ACAD_MLEADERVER
 70
     0
  0
APPID
  2
ACAD_NAV_VCDISPLAY
 70
     0
  0
APPID
  2
ACAD_EXEMPT_FROM_CAD_STANDARDS
 70
     0
  0
ENDTAB
  0
TABLE
  2
DIMSTYLE
 70
     3
  0
DIMSTYLE
  2
STANDARD
 70
     0
  3

  4

  5

  6

  7

 40
1.0
 41
0.18
 42
0.0625
 43
0.38
 44
0.18
 45
0.0
 46
0.0
 47
0.0
 48
0.0
140
0.18
141
0.09
142
0.0
143
25.3999999999999986
144
1.0
145
0.0
146
1.0
147
0.09
 71
     0
 72
     0
 73
     1
 74
     1
 75
     0
 76
     0
 77
     0
 78
     0
170
     0
171
     2
172
     0
173
     0
174
     0
175
     0
176
     0
177
     0
178
     0
  0
DIMSTYLE
  2
ANNOTATIVE
 70
     0
  3

  4

  5

  6

  7

 40
0.0
 41
0.18
 42
0.0625
 43
0.38
 44
0.18
 45
0.0
 46
0.0
 47
0.0
 48
0.0
140
0.18
141
0.09
142
0.0
143
25.3999999999999986
144
1.0
145
0.0
146
1.0
147
0.09
 71
     0
 72
     0
 73
     1
 74
     1
 75
     0
 76
     0
 77
     0
 78
     0
170
     0
171
     2
172
     0
173
     0
174
     0
175
     0
176
     0
177
     0
178
     0
  0
ENDTAB
  0
ENDSEC
  0
SECTION
  2
BLOCKS
  0
BLOCK
  8
0
  2
$MODEL_SPACE
 70
     0
 10
0.0
 20
0.0
 30
0.0
  3
$MODEL_SPACE
  1

  0
ENDBLK
  5
3BC
  8
0
  0
BLOCK
 67
     1
  8
0
  2
$PAPER_SPACE
 70
     0
 10
0.0
 20
0.0
 30
0.0
  3
$PAPER_SPACE
  1

  0
ENDBLK
  5
3B8
 67
     1
  8
0
  0
BLOCK
  8
0
  2
*D2
 70
     1
 10
0.0
 20
0.0
 30
0.0
  3
*D2
  1

  0
LINE
  5
225
  8
0
 62
     0
 10
110.6945762972680996
 20
63.6099458669099675
 30
0.0
 11
107.6668238312817039
 21
63.6099458669099675
 31
0.0
  0
LINE
  5
226
  8
0
 62
     0
 10
110.6945762972680996
 20
58.6099458669099604
 30
0.0
 11
107.6668238312817039
 21
58.6099458669099604
 31
0.0
  0
LINE
  5
227
  8
0
 62
     0
 10
107.8468238312816965
 20
63.429945866909982
 30
0.0
 11
107.8468238312816965
 21
61.2918490046998627
 31
0.0
  0
LINE
  5
228
  8
0
 62
     0
 10
107.8468238312816965
 20
58.7899458669099531
 30
0.0
 11
107.8468238312816965
 21
60.928042729120051
 31
0.0
  0
SOLID
  5
229
  8
0
 62
     0
 10
107.8168238312816953
 20
63.429945866909982
 30
0.0
 11
107.8768238312815981
 21
63.429945866909982
 31
0.0
 12
107.8468238312816965
 22
63.6099458669099675
 32
0.0
 13
107.8468238312816965
 23
63.6099458669099675
 33
0.0
  0
SOLID
  5
22A
  8
0
 62
     0
 10
107.8168238312816953
 20
58.7899458669099531
 30
0.0
 11
107.8768238312815981
 21
58.7899458669099531
 31
0.0
 12
107.8468238312816965
 22
58.6099458669099604
 32
0.0
 13
107.8468238312816965
 23
58.6099458669099604
 33
0.0
  0
INSERT
  5
22B
  8
0
  2
*U3
 10
0.0
 20
0.0
 30
0.0
  0
POINT
  5
22C
  8
DEFPOINTS
 62
     0
 10
110.7570762972680996
 20
63.6099458669099675
 30
0.0
  0
POINT
  5
22D
  8
DEFPOINTS
 62
     0
 10
110.7570762972680996
 20
58.6099458669099604
 30
0.0
  0
POINT
  5
22E
  8
DEFPOINTS
 62
     0
 10
107.8468238312816965
 20
58.6099458669099604
 30
0.0
  0
ENDBLK
  5
219
  8
0
  0
BLOCK
  8
0
  2
*U3
 70
     1
 10
0.0
 20
0.0
 30
0.0
  3
*U3
  1

  0
TEXT
  5
331
  8
0
 62
     0
 10
107.4630653046786932
 20
61.0214806554501621
 30
0.0
 40
0.18
  1
5.0000
  0
ENDBLK
  5
333
  8
0
  0
BLOCK
  8
0
  2
*D4
 70
     1
 10
0.0
 20
0.0
 30
0.0
  3
*D4
  1

  0
LINE
  5
23F
  8
0
 62
     0
 10
110.7570762972680996
 20
59.8529448927679226
 30
0.0
 11
110.7570762972680996
 21
60.9681971947976891
 31
0.0
  0
LINE
  5
240
  8
0
 62
     0
 10
120.7570762972680996
 20
60.3933936600001005
 30
0.0
 11
120.7570762972680996
 21
60.9681971947976891
 31
0.0
  0
LINE
  5
241
  8
0
 62
     0
 10
110.9370762972681064
 20
60.7881971947977107
 30
0.0
 11
115.2323013995872998
 21
60.7881971947977107
 31
0.0
  0
LINE
  5
242
  8
0
 62
     0
 10
120.5770762972681069
 20
60.7881971947977107
 30
0.0
 11
116.2818511949487998
 21
60.7881971947977107
 31
0.0
  0
SOLID
  5
243
  8
0
 62
     0
 10
110.9370762972681064
 20
60.8181971947977118
 30
0.0
 11
110.9370762972681064
 21
60.7581971947977024
 31
0.0
 12
110.7570762972680996
 22
60.7881971947977107
 32
0.0
 13
110.7570762972680996
 23
60.7881971947977107
 33
0.0
  0
SOLID
  5
244
  8
0
 62
     0
 10
120.5770762972681069
 20
60.8181971947977118
 30
0.0
 11
120.5770762972681069
 21
60.7581971947977024
 31
0.0
 12
120.7570762972680996
 22
60.7881971947977107
 32
0.0
 13
120.7570762972680996
 23
60.7881971947977107
 33
0.0
  0
INSERT
  5
245
  8
0
  2
*U5
 10
0.0
 20
0.0
 30
0.0
  0
POINT
  5
246
  8
DEFPOINTS
 62
     0
 10
110.7570762972680996
 20
59.7904448927679368
 30
0.0
  0
POINT
  5
247
  8
DEFPOINTS
 62
     0
 10
120.7570762972680996
 20
60.3308936600001005
 30
0.0
  0
POINT
  5
248
  8
DEFPOINTS
 62
     0
 10
120.7570762972680996
 20
60.7881971947977107
 30
0.0
  0
ENDBLK
  5
233
  8
0
  0
BLOCK
  8
0
  2
*U5
 70
     1
 10
0.0
 20
0.0
 30
0.0
  3
*U5
  1

  0
TEXT
  5
335
  8
0
 62
     0
 10
115.2949207720293003
 20
60.6997319833379407
 30
0.0
 40
0.18
  1
10.0000
  0
ENDBLK
  5
337
  8
0
  0
BLOCK
  8
0
  2
*D6
 70
     1
 10
0.0
 20
0.0
 30
0.0
  3
*D6
  1

  0
LINE
  5
262
  8
0
 62
     0
 10
110.7570762972680996
 20
-321.3275541330900182
 30
0.0
 11
110.7570762972680996
 21
-317.9727904231139064
 31
0.0
  0
LINE
  5
263
  8
0
 62
     0
 10
120.7570762972680996
 20
-321.3275541330900182
 30
0.0
 11
120.7570762972680996
 21
-317.9727904231139064
 31
0.0
  0
LINE
  5
264
  8
0
 62
     0
 10
110.9370762972681064
 20
-318.1527904231139132
 30
0.0
 11
115.2323013995872998
 21
-318.1527904231139132
 31
0.0
  0
LINE
  5
265
  8
0
 62
     0
 10
120.5770762972681069
 20
-318.1527904231139132
 30
0.0
 11
116.2818511949487998
 21
-318.1527904231139132
 31
0.0
  0
SOLID
  5
266
  8
0
 62
     0
 10
110.9370762972681064
 20
-318.1227904231138268
 30
0.0
 11
110.9370762972681064
 21
-318.1827904231137154
 31
0.0
 12
110.7570762972680996
 22
-318.1527904231139132
 32
0.0
 13
110.7570762972680996
 23
-318.1527904231139132
 33
0.0
  0
SOLID
  5
267
  8
0
 62
     0
 10
120.5770762972681069
 20
-318.1227904231138268
 30
0.0
 11
120.5770762972681069
 21
-318.1827904231137154
 31
0.0
 12
120.7570762972680996
 22
-318.1527904231139132
 32
0.0
 13
120.7570762972680996
 23
-318.1527904231139132
 33
0.0
  0
INSERT
  5
268
  8
0
  2
*U7
 10
0.0
 20
0.0
 30
0.0
  0
POINT
  5
269
  8
DEFPOINTS
 62
     0
 10
110.7570762972680996
 20
-321.3900541330900182
 30
0.0
  0
POINT
  5
26A
  8
DEFPOINTS
 62
     0
 10
120.7570762972680996
 20
-321.3900541330900182
 30
0.0
  0
POINT
  5
26B
  8
DEFPOINTS
 62
     0
 10
120.7570762972680996
 20
-318.1527904231139132
 30
0.0
  0
ENDBLK
  5
256
  8
0
  0
BLOCK
  8
0
  2
*U7
 70
     1
 10
0.0
 20
0.0
 30
0.0
  3
*U7
  1

  0
TEXT
  5
339
  8
0
 62
     0
 10
115.2949207720293003
 20
-318.2412556345735766
 30
0.0
 40
0.18
  1
10.0000
  0
ENDBLK
  5
33B
  8
0
  0
BLOCK
  8
0
  2
*D8
 70
     1
 10
0.0
 20
0.0
 30
0.0
  3
*D8
  1

  0
LINE
  5
27C
  8
0
 62
     0
 10
120.8195762972680996
 20
-321.3900541330900751
 30
0.0
 11
133.6456652232135127
 21
-321.3900541330900751
 31
0.0
  0
LINE
  5
27D
  8
0
 62
     0
 10
120.819576297268199
 20
-331.3900541330900751
 30
0.0
 11
133.6456652232135127
 21
-331.3900541330900751
 31
0.0
  0
LINE
  5
27E
  8
0
 62
     0
 10
133.4656652232135059
 20
-321.5700541330900251
 30
0.0
 11
133.4656652232135059
 21
-326.2081509953001728
 31
0.0
  0
LINE
  5
27F
  8
0
 62
     0
 10
133.4656652232135059
 20
-331.2100541330901251
 30
0.0
 11
133.4656652232135059
 21
-326.5719572708799774
 31
0.0
  0
SOLID
  5
280
  8
0
 62
     0
 10
133.4356652232135048
 20
-321.5700541330900251
 30
0.0
 11
133.4956652232133933
 21
-321.5700541330900251
 31
0.0
 12
133.4656652232135059
 22
-321.3900541330900751
 32
0.0
 13
133.4656652232135059
 23
-321.3900541330900751
 33
0.0
  0
SOLID
  5
281
  8
0
 62
     0
 10
133.4356652232135048
 20
-331.2100541330901251
 30
0.0
 11
133.4956652232133933
 21
-331.2100541330901251
 31
0.0
 12
133.4656652232135059
 22
-331.3900541330900751
 32
0.0
 13
133.4656652232135059
 23
-331.3900541330900751
 33
0.0
  0
INSERT
  5
282
  8
0
  2
*U9
 10
0.0
 20
0.0
 30
0.0
  0
POINT
  5
283
  8
DEFPOINTS
 62
     0
 10
120.7570762972680996
 20
-321.3900541330900751
 30
0.0
  0
POINT
  5
284
  8
DEFPOINTS
 62
     0
 10
120.757076297268199
 20
-331.3900541330900751
 30
0.0
  0
POINT
  5
285
  8
DEFPOINTS
 62
     0
 10
133.4656652232135059
 20
-331.3900541330900751
 30
0.0
  0
ENDBLK
  5
270
  8
0
  0
BLOCK
  8
0
  2
*U9
 70
     1
 10
0.0
 20
0.0
 30
0.0
  3
*U9
  1

  0
TEXT
  5
33D
  8
0
 62
     0
 10
133.0035096979746072
 20
-326.478519344549909
 30
0.0
 40
0.18
  1
10.0000
  0
ENDBLK
  5
33F
  8
0
  0
BLOCK
  8
0
  2
*D10
 70
     1
 10
0.0
 20
0.0
 30
0.0
  3
*D10
  1

  0
LINE
  5
296
  8
0
 62
     0
 10
113.7637050094663067
 20
-376.3900541330901888
 30
0.0
 11
124.6087812189268931
 21
-376.3900541330901888
 31
0.0
  0
LINE
  5
297
  8
0
 62
     0
 10
115.8195762972680996
 20
-331.3900541330901888
 30
0.0
 11
124.6087812189268931
 21
-331.3900541330901888
 31
0.0
  0
LINE
  5
298
  8
0
 62
     0
 10
124.4287812189269005
 20
-376.2100541330901819
 30
0.0
 11
124.4287812189269005
 21
-354.0719572708799774
 31
0.0
  0
LINE
  5
299
  8
0
 62
     0
 10
124.4287812189269005
 20
-331.5700541330901956
 30
0.0
 11
124.4287812189269005
 21
-353.7081509953002865
 31
0.0
  0
SOLID
  5
29A
  8
0
 62
     0
 10
124.3987812189268993
 20
-376.2100541330901819
 30
0.0
 11
124.4587812189269016
 21
-376.2100541330901819
 31
0.0
 12
124.4287812189269005
 22
-376.3900541330901888
 32
0.0
 13
124.4287812189269005
 23
-376.3900541330901888
 33
0.0
  0
SOLID
  5
29B
  8
0
 62
     0
 10
124.3987812189268993
 20
-331.5700541330901956
 30
0.0
 11
124.4587812189269016
 21
-331.5700541330901956
 31
0.0
 12
124.4287812189269005
 22
-331.3900541330901888
 32
0.0
 13
124.4287812189269005
 23
-331.3900541330901888
 33
0.0
  0
INSERT
  5
29C
  8
0
  2
*U11
 10
0.0
 20
0.0
 30
0.0
  0
POINT
  5
29D
  8
DEFPOINTS
 62
     0
 10
113.7012050094664062
 20
-376.3900541330901888
 30
0.0
  0
POINT
  5
29E
  8
DEFPOINTS
 62
     0
 10
115.7570762972680996
 20
-331.3900541330901888
 30
0.0
  0
POINT
  5
29F
  8
DEFPOINTS
 62
     0
 10
124.4287812189269005
 20
-331.3900541330901888
 30
0.0
  0
ENDBLK
  5
28A
  8
0
  0
BLOCK
  8
0
  2
*U11
 70
     1
 10
0.0
 20
0.0
 30
0.0
  3
*U11
  1

  0
TEXT
  5
341
  8
0
 62
     0
 10
123.9787198273852056
 20
-353.9785193445497953
 30
0.0
 40
0.18
  1
45.0000
  0
ENDBLK
  5
343
  8
0
  0
BLOCK
  8
0
  2
*D12
 70
     1
 10
0.0
 20
0.0
 30
0.0
  3
*D12
  1

  0
LINE
  5
2B5
  8
0
 62
     0
 10
110.4647351453840969
 20
-316.3275541330900182
 30
0.0
 11
110.4647351453840969
 21
-314.6377410049606738
 31
0.0
  0
LINE
  5
2B6
  8
0
 62
     0
 10
120.7570762972680996
 20
-316.3275541330900182
 30
0.0
 11
120.7570762972680996
 21
-314.6377410049606738
 31
0.0
  0
LINE
  5
2B7
  8
0
 62
     0
 10
110.6447351453841037
 20
-314.8177410049607943
 30
0.0
 11
115.0858238659373001
 21
-314.8177410049607943
 31
0.0
  0
LINE
  5
2B8
  8
0
 62
     0
 10
120.5770762972681069
 20
-314.8177410049607943
 30
0.0
 11
116.1359875767148964
 21
-314.8177410049607943
 31
0.0
  0
SOLID
  5
2B9
  8
0
 62
     0
 10
110.6447351453841037
 20
-314.7877410049607079
 30
0.0
 11
110.6447351453841037
 21
-314.8477410049605965
 31
0.0
 12
110.4647351453840969
 22
-314.8177410049607943
 32
0.0
 13
110.4647351453840969
 23
-314.8177410049607943
 33
0.0
  0
SOLID
  5
2BA
  8
0
 62
     0
 10
120.5770762972681069
 20
-314.7877410049607079
 30
0.0
 11
120.5770762972681069
 21
-314.8477410049605965
 31
0.0
 12
120.7570762972680996
 22
-314.8177410049607943
 32
0.0
 13
120.7570762972680996
 23
-314.8177410049607943
 33
0.0
  0
INSERT
  5
2BB
  8
0
  2
*U13
 10
0.0
 20
0.0
 30
0.0
  0
POINT
  5
2BC
  8
DEFPOINTS
 62
     0
 10
110.4647351453840969
 20
-316.3900541330900182
 30
0.0
  0
POINT
  5
2BD
  8
DEFPOINTS
 62
     0
 10
120.7570762972680996
 20
-316.3900541330900182
 30
0.0
  0
POINT
  5
2BE
  8
DEFPOINTS
 62
     0
 10
120.7570762972680996
 20
-314.8177410049607943
 30
0.0
  0
ENDBLK
  5
2A9
  8
0
  0
BLOCK
  8
0
  2
*U13
 70
     1
 10
0.0
 20
0.0
 30
0.0
  3
*U13
  1

  0
TEXT
  5
345
  8
0
 62
     0
 10
115.1484432383793006
 20
-314.9061448248788224
 30
0.0
 40
0.18
  1
10.2923
  0
ENDBLK
  5
347
  8
0
  0
BLOCK
  8
0
  2
*D14
 70
     1
 10
0.0
 20
0.0
 30
0.0
  3
*D14
  1

  0
LINE
  5
2CF
  8
0
 62
     0
 10
110.7570762972680996
 20
-318.7765659279461943
 30
0.0
 11
110.7570762972680996
 21
-319.8053657065372022
 31
0.0
  0
LINE
  5
2D0
  8
0
 62
     0
 10
120.7570762972680996
 20
-318.7765659279461943
 30
0.0
 11
120.7570762972680996
 21
-319.8053657065372022
 31
0.0
  0
LINE
  5
2D1
  8
0
 62
     0
 10
110.9370762972681064
 20
-319.6253657065371954
 30
0.0
 11
115.2323013995872998
 21
-319.6253657065371954
 31
0.0
  0
LINE
  5
2D2
  8
0
 62
     0
 10
120.5770762972681069
 20
-319.6253657065371954
 30
0.0
 11
116.2818511949487998
 21
-319.6253657065371954
 31
0.0
  0
SOLID
  5
2D3
  8
0
 62
     0
 10
110.9370762972681064
 20
-319.5953657065372226
 30
0.0
 11
110.9370762972681064
 21
-319.6553657065372249
 31
0.0
 12
110.7570762972680996
 22
-319.6253657065371954
 32
0.0
 13
110.7570762972680996
 23
-319.6253657065371954
 33
0.0
  0
SOLID
  5
2D4
  8
0
 62
     0
 10
120.5770762972681069
 20
-319.5953657065372226
 30
0.0
 11
120.5770762972681069
 21
-319.6553657065372249
 31
0.0
 12
120.7570762972680996
 22
-319.6253657065371954
 32
0.0
 13
120.7570762972680996
 23
-319.6253657065371954
 33
0.0
  0
INSERT
  5
2D5
  8
0
  2
*U15
 10
0.0
 20
0.0
 30
0.0
  0
POINT
  5
2D6
  8
DEFPOINTS
 62
     0
 10
110.7570762972680996
 20
-318.7140659279461943
 30
0.0
  0
POINT
  5
2D7
  8
DEFPOINTS
 62
     0
 10
120.7570762972680996
 20
-318.7140659279461943
 30
0.0
  0
POINT
  5
2D8
  8
DEFPOINTS
 62
     0
 10
120.7570762972680996
 20
-319.6253657065371954
 30
0.0
  0
ENDBLK
  5
2C3
  8
0
  0
BLOCK
  8
0
  2
*U15
 70
     1
 10
0.0
 20
0.0
 30
0.0
  3
*U15
  1

  0
TEXT
  5
349
  8
0
 62
     0
 10
115.2949207720293003
 20
-319.7138309179969724
 30
0.0
 40
0.18
  1
10.0000
  0
ENDBLK
  5
34B
  8
0
  0
ENDSEC
  0
SECTION
  2
ENTITIES
  0
LINE
  5
206
  8
0
 10
35.7570762972680996
 20
51.609945866909932
 30
0.0
 11
35.7570762972680996
 21
-364.3900541330900182
 31
0.0
  0
LINE
  5
208
  8
0
 10
195.7570762972680996
 20
-364.3900541330900182
 30
0.0
 11
195.7570762972680996
 21
51.609945866909932
 31
0.0
  0
LINE
  5
2A1
  8
0
 10
110.7570762972680996
 20
-326.3900541330900182
 30
0.0
 11
120.7570762972680996
 21
-326.3900541330900751
 31
0.0
  0
LINE
  5
2A3
  8
0
 10
110.7570762972680996
 20
-316.3900541330900182
 30
0.0
 11
110.7570762972680996
 21
-326.3900541330900182
 31
0.0
  0
LINE
  5
2A4
  8
0
 10
120.7570762972680996
 20
-316.3900541330900182
 30
0.0
 11
120.7570762972680996
 21
-326.3900541330900182
 31
0.0
  0
LINE
  5
2A5
  8
0
 10
110.7570762972680996
 20
-316.3900541330900182
 30
0.0
 11
120.7570762972680996
 21
-316.3900541330900182
 31
0.0
  0
LINE
  5
3EF
  8
0
 10
35.7570762972680996
 20
-364.3900541330900751
 30
0.0
 11
195.7570762972680996
 21
-364.3900541330900751
 31
0.0
  0
LINE
  5
3F2
  8
0
 10
195.7570762972680996
 20
51.609945866909932
 30
0.0
 11
120.7570762972680996
 21
51.609945866909932
 31
0.0
  0
LINE
  5
3F4
  8
0
 10
110.7570762972680996
 20
51.609945866909932
 30
0.0
 11
35.7570762972681422
 21
51.609945866909932
 31
0.0
  0
LINE
  5
3F5
  8
0
 10
110.7570762972680996
 20
51.609945866909932
 30
0.0
 11
110.7570762972680996
 21
41.6099458669099178
 31
0.0
  0
LINE
  5
3F6
  8
0
 10
110.7570762972680996
 20
41.6099458669099178
 30
0.0
 11
120.7570762972680996
 21
41.6099458669099178
 31
0.0
  0
LINE
  5
3F7
  8
0
 10
120.7570762972680996
 20
51.609945866909932
 30
0.0
 11
120.7570762972680996
 21
41.6099458669099178
 31
0.0
  0
ENDSEC
  0
EOF
